PathFileType	4	(x/y/z)	S10_P20_T02
DataRate	CameraRate	NumFrames	NumMarkers	Units	OrigDataRate	OrigDataStartFrame	OrigNumFrames
240	240	4	51	mm	240	53	422
Frame#	Time	Sternum			R.Acromium			L.Acromium			Top.Head			R.ASIS			L.ASIS			R.PSIS			L.PSIS			R.Great.Tro			L.Great.Tro			R.Iliac.Crest			L.Iliac.Crest			V.Sacral			R.Thigh.Upper.Post			R.Thigh.Lower.Ant			R.Thigh.Lower.Post			R.Thigh.Upper.Ant			R.Knee.Lat			R.Knee.Med			R.Shank.Upper.Post			R.Shank.Lower.Ant			R.Shank.Lower.Post			R.Shank.Upper.Ant			R.Ankle.Lat			R.Ankle.Med			R.Heel.Upper			R.Heel.Med			R.Heel.Lat			R.Toe.Lat			R.Toe.Med			R.Toe.Tip			L.Thigh.Upper.Post			L.Thigh.Lower.Ant			L.Thigh.Lower.Post			L.Thigh.Upper.Ant			L.Knee.Lat			L.Knee.Med			L.Shank.Upper.Post			L.Shank.Lower.Ant			L.Shank.Lower.Post			L.Shank.Upper.Ant			L.Ankle.Lat			L.Ankle.Med			L.Heel.Upper			L.Heel.Med			L.Heel.Lat			L.Toe.Lat			L.Toe.Med			L.Toe.Tip			Cervical.Spine			Back			
		X1	Y1	Z1	X2	Y2	Z2	X3	Y3	Z3	X4	Y4	Z4	X5	Y5	Z5	X6	Y6	Z6	X7	Y7	Z7	X8	Y8	Z8	X9	Y9	Z9	X10	Y10	Z10	X11	Y11	Z11	X12	Y12	Z12	X13	Y13	Z13	X14	Y14	Z14	X15	Y15	Z15	X16	Y16	Z16	X17	Y17	Z17	X18	Y18	Z18	X19	Y19	Z19	X20	Y20	Z20	X21	Y21	Z21	X22	Y22	Z22	X23	Y23	Z23	X24	Y24	Z24	X25	Y25	Z25	X26	Y26	Z26	X27	Y27	Z27	X28	Y28	Z28	X29	Y29	Z29	X30	Y30	Z30	X31	Y31	Z31	X32	Y32	Z32	X33	Y33	Z33	X34	Y34	Z34	X35	Y35	Z35	X36	Y36	Z36	X37	Y37	Z37	X38	Y38	Z38	X39	Y39	Z39	X40	Y40	Z40	X41	Y41	Z41	X42	Y42	Z42	X43	Y43	Z43	X44	Y44	Z44	X45	Y45	Z45	X46	Y46	Z46	X47	Y47	Z47	X48	Y48	Z48	X49	Y49	Z49	X50	Y50	Z50	X51	Y51	Z51	

53	0.21667	-981.95	1280.6	326.24	-1119.3	1432.1	477.03	-1112	1459	178.28	-1148.1	1749	350.85	-1029.4	1005.9	430.68	-1020.4	1035	201.37	-1232.6	1017.3	335.93	-1225.9	1030.3	255.87	-1102.8	918.42	496.67	-1074	967.07	138.26	-1136.2	1079.1	473.95	-1102.8	1106	175.19	-1248.7	987.74	296.05	-1050.8	712.88	498.75	-980.97	643.45	466.48	-1041.9	623.79	493.93	-987.72	735.34	469.18	-1039.8	498.88	461.04	-1021	495.92	329.47	-1236.2	391.78	441	-1236.1	297.04	436.66	-1289.7	340.47	434.31	-1178.7	348.95	447.93	-1354.5	251.78	418.75	-1328.5	246.09	340.19	-1407.1	275.59	358.75	-1420.6	255.28	330.54	-1433.6	266.92	390.22	-1385.6	109.29	449.36	NaN	NaN	NaN	-1314.7	41.226	395.72	-1082	684.81	152.45	-998.91	616.15	182.09	-1072.1	592.57	178.35	-997.19	704.94	153.65	-1028.6	510.94	196.04	-1021.3	518.18	323.67	-1107.2	304.48	192.55	-1053.3	211.54	219.02	-1114.3	226.92	204.92	-1045.8	287.43	206.17	-1102	112.55	216.69	-1095.6	116.51	307.64	-1176.3	77.835	262.16	-1168.3	45.04	293.86	-1170.2	50.682	229.59	-991.62	43.024	198.61	NaN	NaN	NaN	-911.34	53.592	261.67	-1192.1	1491.1	337.54	-1275.9	1282.2	320.52
54	0.22083	-976.93	1281.4	326.94	-1114.9	1432.8	477.27	-1106.2	1460	178.61	-1142.5	1749.8	351.17	-1024.7	1006.9	430.83	-1014.9	1035.6	201.51	-1227.5	1018.1	335.52	-1220.6	1031.1	255.48	-1097.8	919.52	496.79	-1068.9	967.46	138.38	-1131.6	1080	473.79	-1096.9	1106.7	175.11	-1243.5	988.63	295.62	-1043	714.32	498.94	-972.81	645.59	466.29	-1033.4	625.31	494.13	-980.5	737.37	468.78	-1030.3	500.29	460.99	-1011.9	497.78	329.23	-1226.1	391.66	441.05	-1226.3	297.55	436.99	-1279.3	339.93	434.51	-1168.5	349.46	447.68	-1343.3	250.67	418.69	-1318.1	245.19	340.51	-1398.3	272.35	358.86	-1411.5	251.14	330.98	-1424	262.96	390.58	-1369.1	108.08	451.26	NaN	NaN	NaN	-1296.6	42.055	397.64	-1079.2	685.37	152.77	-996.47	616.11	182.07	-1069.9	593.04	178.59	-995.24	704.44	154.35	-1027	511.05	196.03	-1019.2	518.16	323.49	-1106.4	304.75	192.62	-1052.9	211.64	219.08	-1113.5	227.27	204.92	-1045	287.48	206.2	-1102	112.7	216.8	-1095.4	116.7	307.74	-1176.2	78.118	262.3	-1168.2	45.232	293.94	-1170.1	50.951	229.68	-991.56	43.021	198.64	NaN	NaN	NaN	-911.23	53.392	261.69	-1187	1491.8	337.53	-1270.7	1283	319.75
55	0.225	-971.92	1282.3	327.64	-1110.6	1433.5	477.52	-1100.5	1461.1	178.95	-1136.9	1750.7	351.51	-1020	1007.8	430.99	-1009.5	1036.1	201.66	-1222.5	1019	335.13	-1215.3	1032	255.12	-1092.9	920.64	496.94	-1063.8	967.86	138.5	-1127	1081	473.64	-1091.1	1107.3	175.04	-1238.4	989.54	295.23	-1035.3	715.81	499.13	-964.72	647.78	466.11	-1024.9	626.88	494.32	-973.34	739.43	468.38	-1020.9	501.74	460.93	-1002.8	499.68	329	-1216.1	391.42	441.1	-1216.2	297.88	437.3	-1268.8	339.21	434.74	-1158.2	349.91	447.45	-1332	249.35	418.64	-1307.4	244.1	340.82	-1389.4	268.82	358.99	-1402.2	246.72	331.42	-1414.3	258.7	390.95	-1352.6	106.81	453.16	NaN	NaN	NaN	-1278.3	42.935	399.61	-1076.4	685.95	153.09	-994.11	616.06	182.08	-1067.8	593.53	178.83	-993.21	704	155	-1025.4	511.17	196.02	-1017.2	518.13	323.35	-1105.6	305.04	192.69	-1052.4	211.75	219.12	-1112.8	227.64	204.9	-1044.3	287.54	206.24	-1101.9	112.82	216.94	-1095.2	116.91	307.84	-1176.1	78.419	262.47	-1168.1	45.438	294.02	-1170	51.236	229.78	-991.51	43.016	198.68	NaN	NaN	NaN	-911.12	53.192	261.71	-1182	1492.6	337.52	-1265.5	1283.8	318.97
56	0.22917	-966.93	1283.2	328.34	-1106.2	1434.3	477.77	-1094.8	1462.1	179.29	-1131.4	1751.5	351.87	-1015.3	1008.8	431.16	-1004.1	1036.7	201.81	-1217.4	1020	334.78	-1210.1	1032.8	254.79	-1087.9	921.78	497.11	-1058.7	968.26	138.63	-1122.3	1081.9	473.5	-1085.3	1108	174.98	-1233.4	990.45	294.86	-1027.6	717.33	499.34	-956.7	650	465.93	-1016.5	628.49	494.51	-966.22	741.51	467.99	-1011.6	503.22	460.86	-993.84	501.63	328.8	-1206.2	391.08	441.18	-1206	298.02	437.58	-1258.3	338.31	434.98	-1147.9	350.29	447.24	-1320.6	247.8	418.64	-1296.5	242.81	341.14	-1380.1	265.01	359.12	-1392.5	242.05	331.86	-1404.3	254.18	391.34	-1335.9	105.48	455.03	NaN	NaN	NaN	-1259.9	43.861	401.62	-1073.6	686.53	153.4	-991.83	616	182.12	-1065.7	594.04	179.06	-991.11	703.63	155.6	-1023.9	511.31	195.99	-1015.3	518.08	323.24	-1104.8	305.35	192.74	-1051.9	211.89	219.16	-1112	228.03	204.89	-1043.6	287.62	206.27	-1101.8	112.92	217.09	-1095	117.13	307.94	-1176	78.739	262.65	-1168	45.655	294.13	-1169.9	51.54	229.9	-991.45	43.01	198.72	NaN	NaN	NaN	-911	52.992	261.72	-1176.9	1493.3	337.51	-1260.3	1284.6	318.19
